G04 ================== begin FILE IDENTIFICATION RECORD ==================*
G04 Layout Name:  C:/Users/Alexandru/iCloudDrive/Proiect1_CEF/allegro/P1_CEF_FINAL.brd*
G04 Film Name:    TOP*
G04 File Format:  Gerber RS274X*
G04 File Origin:  Cadence Allegro 17.2-S025*
G04 Origin Date:  Fri Dec 13 15:08:58 2024*
G04 *
G04 Layer:  ETCH/TOP*
G04 Layer:  PIN/TOP*
G04 Layer:  VIA CLASS/TOP*
G04 *
G04 Offset:    (0.00 0.00)*
G04 Mirror:    No*
G04 Mode:      Positive*
G04 Rotation:  0*
G04 FullContactRelief:  No*
G04 UndefLineWidth:     12.00*
G04 ================== end FILE IDENTIFICATION RECORD ====================*
%FSLAX25Y25*MOIN*%
%IR0*IPPOS*OFA0.00000B0.00000*MIA0B0*SFA1.00000B1.00000*%
%ADD18R,.063X.126*%
%ADD11C,.04*%
%ADD13R,.126X.063*%
%ADD19C,.024*%
%ADD12R,.05X.05*%
%ADD10R,.04X.06*%
%ADD17R,.06X.04*%
%ADD15R,.036X.032*%
%ADD14R,.032X.036*%
%ADD16R,.048X.076*%
%ADD20C,.016*%
%ADD21C,.018*%
%ADD22C,.08004*%
G75*
%LPD*%
G75*
G36*
G01X4001Y4001D02*
Y155999D01*
X155999D01*
Y4001D01*
X4001D01*
G37*
%LPC*%
G75*
G36*
G01X144098Y82000D02*
Y88000D01*
G02X145500Y89402I1402J0D01*
G01X149500D01*
G02X150902Y88000I0J-1402D01*
G01Y82000D01*
G02X149500Y80598I-1402J0D01*
G01X145500D01*
G02X144098Y82000I0J1402D01*
G37*
G36*
G01Y44500D02*
Y50500D01*
G02X145500Y51902I1402J0D01*
G01X149500D01*
G02X150902Y50500I0J-1402D01*
G01Y44500D01*
G02X149500Y43098I-1402J0D01*
G01X145500D01*
G02X144098Y44500I0J1402D01*
G37*
G36*
G01X126098Y47500D02*
Y52500D01*
G02X127500Y53902I1402J0D01*
G01X132500D01*
G02X133902Y52500I0J-1402D01*
G01Y47500D01*
G02X132500Y46098I-1402J0D01*
G01X127500D01*
G02X126098Y47500I0J1402D01*
G37*
G36*
G01X95448Y51400D02*
Y64000D01*
G02X96850Y65402I1402J0D01*
G01X103150D01*
G02X104552Y64000I0J-1402D01*
G01Y51400D01*
G02X103150Y49998I-1402J0D01*
G01X96850D01*
G02X95448Y51400I0J1402D01*
G37*
G36*
G01X68598Y57500D02*
Y62500D01*
G02X70000Y63902I1402J0D01*
G01X75000D01*
G02X76402Y62500I0J-1402D01*
G01Y57500D01*
G02X75000Y56098I-1402J0D01*
G01X70000D01*
G02X68598Y57500I0J1402D01*
G37*
G36*
G01X41098D02*
Y62500D01*
G02X42500Y63902I1402J0D01*
G01X47500D01*
G02X48902Y62500I0J-1402D01*
G01Y57500D01*
G02X47500Y56098I-1402J0D01*
G01X42500D01*
G02X41098Y57500I0J1402D01*
G37*
G36*
G01X50998Y34400D02*
Y38000D01*
G02X52400Y39402I1402J0D01*
G01X55600D01*
G02X57002Y38000I0J-1402D01*
G01Y34400D01*
G02X55600Y32998I-1402J0D01*
G01X52400D01*
G02X50998Y34400I0J1402D01*
G37*
G36*
G01X9098Y94500D02*
Y100500D01*
G02X10500Y101902I1402J0D01*
G01X14500D01*
G02X15902Y100500I0J-1402D01*
G01Y94500D01*
G02X14500Y93098I-1402J0D01*
G01X10500D01*
G02X9098Y94500I0J1402D01*
G37*
G36*
G01Y67000D02*
Y73000D01*
G02X10500Y74402I1402J0D01*
G01X14500D01*
G02X15902Y73000I0J-1402D01*
G01Y67000D01*
G02X14500Y65598I-1402J0D01*
G01X10500D01*
G02X9098Y67000I0J1402D01*
G37*
G36*
G01X89868Y136228D02*
G03X89913Y136832I-238J321D01*
G01X84047Y142698D01*
X71213D01*
G02X70000Y141998I-1213J701D01*
G01X65000D01*
G02X63599Y143399I0J1401D01*
G01X63598Y143598D01*
X62647D01*
X61047Y145198D01*
X28453D01*
X27302Y144047D01*
Y142501D01*
G03X27501Y142301I200J0D01*
G02X28902Y140900I0J-1401D01*
G01Y135900D01*
G02X27500Y134498I-1402J0D01*
G01X22500D01*
G02X21098Y135900I0J1402D01*
G01Y140900D01*
G02X22499Y142301I1401J0D01*
G03X22698Y142501I-1J200D01*
G01Y145953D01*
X26547Y149802D01*
X62953D01*
X63404Y149351D01*
G03X63979Y149360I283J282D01*
G02X65000Y149802I1022J-960D01*
G01X70000D01*
G02X71401Y148401I0J-1401D01*
G01X71402Y148202D01*
X72353D01*
X73253Y147302D01*
X85953D01*
X94802Y138453D01*
Y136415D01*
X94914Y136360D01*
G02X95702Y135100I-613J-1260D01*
G01Y131900D01*
G02X94300Y130498I-1402J0D01*
G01X90700D01*
G02X89487Y131198I0J1401D01*
G01X87447D01*
X85947Y132698D01*
X81214D01*
G02Y137302I-1214J2302D01*
G01X87853D01*
X89104Y136051D01*
G03X89679Y136060I283J282D01*
G02X89868Y136228I1022J-959D01*
G37*
G36*
G01X71402Y123400D02*
G02X70000Y121998I-1402J0D01*
G01X65000D01*
G02X63598Y123400I0J1402D01*
G01Y128400D01*
G02X65000Y129802I1402J0D01*
G01X65298D01*
Y133598D01*
X65000D01*
G02X63598Y135000I0J1402D01*
G01Y140000D01*
G02X65000Y141402I1402J0D01*
G01X70000D01*
G02X71402Y140000I0J-1402D01*
G01Y135000D01*
G02X70000Y133598I-1402J0D01*
G01X69702D01*
Y129802D01*
X70000D01*
G02X71402Y128400I0J-1402D01*
G01Y123400D01*
G37*
G36*
G01X72798Y101450D02*
Y109088D01*
X68288Y113598D01*
X65000D01*
G02X63598Y115000I0J1402D01*
G01Y120000D01*
G02X65000Y121402I1402J0D01*
G01X70000D01*
G02X71402Y120000I0J-1402D01*
G01Y116712D01*
X77202Y110912D01*
Y109702D01*
X85604D01*
X85643Y109851D01*
G02X87000Y110902I1357J-351D01*
G01X87798D01*
Y116588D01*
X86598Y117788D01*
Y123550D01*
X86474Y123601D01*
G02X85598Y124900I525J1299D01*
G01Y128100D01*
G02X87000Y129502I1402J0D01*
G01X90600D01*
G02X92002Y128100I0J-1402D01*
G01Y124900D01*
G02X91126Y123601I-1401J0D01*
G01X91002Y123550D01*
Y119612D01*
X92202Y118412D01*
Y110902D01*
X93000D01*
G02X94402Y109500I0J-1402D01*
G01Y105500D01*
G02X93000Y104098I-1402J0D01*
G01X87000D01*
G02X85643Y105149I0J1402D01*
G01X85604Y105298D01*
X78433D01*
X77232Y104112D01*
X77217Y101445D01*
X77341Y101393D01*
G02X78202Y100100I-540J-1293D01*
G01Y96900D01*
G02X76800Y95498I-1402J0D01*
G01X73200D01*
G02X71798Y96900I0J1402D01*
G01Y100100D01*
G02X72674Y101399I1401J0D01*
G01X72798Y101450D01*
G37*
G36*
G01X16243Y104844D02*
G03X15902Y104702I-141J-142D01*
G01Y104500D01*
G02X14500Y103098I-1402J0D01*
G01X10500D01*
G02X9098Y104500I0J1402D01*
G01Y110500D01*
G02X10500Y111902I1402J0D01*
G01X14500D01*
G02X15902Y110500I0J-1402D01*
G01Y109702D01*
X17612D01*
X21202Y106112D01*
Y103612D01*
X22157Y102656D01*
G03X22498Y102798I141J142D01*
G01Y103150D01*
G02X23900Y104552I1402J0D01*
G01X36500D01*
G02X37902Y103150I0J-1402D01*
G01Y96850D01*
G02X36500Y95448I-1402J0D01*
G01X23900D01*
G02X22498Y96850I0J1402D01*
G01Y97798D01*
X20788D01*
X16798Y101788D01*
Y104288D01*
X16243Y104844D01*
G37*
G36*
G01X145298Y109088D02*
X141588Y112798D01*
X137502D01*
Y111850D01*
G02X136100Y110448I-1402J0D01*
G01X123500D01*
G02X122098Y111850I0J1402D01*
G01Y118150D01*
G02X123500Y119552I1402J0D01*
G01X136100D01*
G02X137502Y118150I0J-1402D01*
G01Y117202D01*
X143412D01*
X149702Y110912D01*
Y99396D01*
X149851Y99357D01*
G02X150902Y98000I-351J-1357D01*
G01Y92000D01*
G02X149500Y90598I-1402J0D01*
G01X145500D01*
G02X144098Y92000I0J1402D01*
G01Y98000D01*
G02X145149Y99357I1402J0D01*
G01X145298Y99396D01*
Y109088D01*
G37*
G36*
G01X47798Y119088D02*
X39088Y127798D01*
X28902D01*
Y127500D01*
G02X27500Y126098I-1402J0D01*
G01X22500D01*
G02X21098Y127500I0J1402D01*
G01Y132500D01*
G02X22500Y133902I1402J0D01*
G01X27500D01*
G02X28902Y132500I0J-1402D01*
G01Y132202D01*
X40912D01*
X52202Y120912D01*
Y104552D01*
X56100D01*
G02X57502Y103150I0J-1402D01*
G01Y102202D01*
X59712D01*
X67884Y94029D01*
G03X68463Y94043I283J283D01*
G02X69500Y94502I1037J-942D01*
G01X73100D01*
G02X74502Y93100I0J-1402D01*
G01Y89900D01*
G02X73100Y88498I-1402J0D01*
G01X69500D01*
G02X68234Y89298I0J1402D01*
G01X66388D01*
X57888Y97798D01*
X57502D01*
Y96850D01*
G02X56100Y95448I-1402J0D01*
G01X52202D01*
Y79088D01*
X47202Y74088D01*
Y72302D01*
X47500D01*
G02X48902Y70900I0J-1402D01*
G01Y65900D01*
G02X47500Y64498I-1402J0D01*
G01X42500D01*
G02X41098Y65900I0J1402D01*
G01Y70900D01*
G02X42500Y72302I1402J0D01*
G01X42798D01*
Y75912D01*
X47798Y80912D01*
Y94488D01*
X47598Y94688D01*
Y95448D01*
X43500D01*
G02X42098Y96850I0J1402D01*
G01Y103150D01*
G02X43500Y104552I1402J0D01*
G01X47598D01*
Y105312D01*
X47798Y105512D01*
Y119088D01*
G37*
G36*
G01X96588Y112798D02*
X94098Y115288D01*
Y123550D01*
X93974Y123601D01*
G02X93098Y124900I525J1299D01*
G01Y128100D01*
G02X94500Y129502I1402J0D01*
G01X98100D01*
G02X99502Y128100I0J-1402D01*
G01Y124900D01*
G02X98626Y123601I-1401J0D01*
G01X98502Y123550D01*
Y117202D01*
X102498D01*
Y118150D01*
G02X103900Y119552I1402J0D01*
G01X116500D01*
G02X117902Y118150I0J-1402D01*
G01Y111850D01*
G02X116500Y110448I-1402J0D01*
G01X112402D01*
Y109688D01*
X112202Y109488D01*
Y95912D01*
X132202Y75912D01*
Y62302D01*
X132500D01*
G02X133902Y60900I0J-1402D01*
G01Y55900D01*
G02X132500Y54498I-1402J0D01*
G01X127500D01*
G02X126098Y55900I0J1402D01*
G01Y60900D01*
G02X127500Y62302I1402J0D01*
G01X127798D01*
Y74088D01*
X107798Y94088D01*
Y110448D01*
X103900D01*
G02X102498Y111850I0J1402D01*
G01Y112798D01*
X96588D01*
G37*
G36*
G01X57002Y41900D02*
G02X55600Y40498I-1402J0D01*
G01X52400D01*
G02X51101Y41374I0J1401D01*
G01X51050Y41498D01*
X50788D01*
X49488Y42798D01*
X44802D01*
Y42500D01*
G02X43400Y41098I-1402J0D01*
G01X38400D01*
G02X36998Y42500I0J1402D01*
G01Y47500D01*
G02X38400Y48902I1402J0D01*
G01X43400D01*
G02X44802Y47500I0J-1402D01*
G01Y47202D01*
X51312D01*
X51760Y46754D01*
X51882Y46802D01*
G02X52400Y46902I520J-1302D01*
G01X55600D01*
G02X57002Y45500I0J-1402D01*
G01Y41900D01*
G37*
G36*
G01X62202Y58412D02*
X65912Y54702D01*
X73412D01*
X77202Y50912D01*
Y43402D01*
X78000D01*
G02X79402Y42000I0J-1402D01*
G01Y38000D01*
G02X78000Y36598I-1402J0D01*
G01X72000D01*
G02X70643Y37649I0J1402D01*
G01X70604Y37798D01*
X63950D01*
X63899Y37674D01*
G02X62600Y36798I-1299J525D01*
G01X59400D01*
G02X57998Y38200I0J1402D01*
G01Y41800D01*
G02X59400Y43202I1402J0D01*
G01X62600D01*
G02X63899Y42326I0J-1401D01*
G01X63950Y42202D01*
X70604D01*
X70643Y42351D01*
G02X72000Y43402I1357J-351D01*
G01X72798D01*
Y49088D01*
X71588Y50298D01*
X64088D01*
X57798Y56588D01*
Y66812D01*
X60688Y69702D01*
X66888D01*
X67788Y70602D01*
X68598D01*
Y70900D01*
G02X70000Y72302I1402J0D01*
G01X70298D01*
Y83412D01*
X75908Y89021D01*
G02X75598Y89900I1091J879D01*
G01Y93100D01*
G02X77000Y94502I1402J0D01*
G01X80600D01*
G02X81895Y93637I0J-1402D01*
G01X81946Y93513D01*
X91124Y93546D01*
X95368D01*
X102202Y86712D01*
Y85002D01*
X103150D01*
G02X104552Y83600I0J-1402D01*
G01Y71000D01*
G02X103150Y69598I-1402J0D01*
G01X96850D01*
G02X95448Y71000I0J1402D01*
G01Y83600D01*
G02X96850Y85002I1402J0D01*
G01X97202D01*
G03X97344Y85343I0J200D01*
G01X93544Y89142D01*
X91132D01*
X81761Y89109D01*
X81701Y89033D01*
G02X81126Y88601I-1101J867D01*
G01X81002Y88550D01*
Y87888D01*
X74702Y81588D01*
Y72302D01*
X75000D01*
G02X76402Y70900I0J-1402D01*
G01Y65900D01*
G02X75000Y64498I-1402J0D01*
G01X70000D01*
G02X68734Y65298I0J1402D01*
G01X62512D01*
X62202Y64988D01*
Y58412D01*
G37*
G36*
G01X131401Y32499D02*
G02X130000Y31098I-1401J0D01*
G01X125000D01*
G02X123598Y32500I0J1402D01*
G01Y37500D01*
G02X124580Y38837I1401J0D01*
G03X124744Y39502I-119J382D01*
G01X119047Y45198D01*
X116214D01*
G02Y49802I-1214J2302D01*
G01X120953D01*
X129802Y40953D01*
Y39101D01*
G03X130001Y38901I200J0D01*
G02X131401Y37501I-1J-1401D01*
G01X131402Y37302D01*
X140647D01*
X143147Y39802D01*
X144098D01*
Y40500D01*
G02X145500Y41902I1402J0D01*
G01X149500D01*
G02X150902Y40500I0J-1402D01*
G01Y34500D01*
G02X149500Y33098I-1402J0D01*
G01X145500D01*
G02X144310Y33760I1J1402D01*
G03X143687Y33832I-340J-211D01*
G01X142553Y32698D01*
X131402D01*
X131401Y32499D01*
G37*
G36*
G01X123002Y32500D02*
G02X121600Y31098I-1402J0D01*
G01X116600D01*
G02X115198Y32500I0J1402D01*
G01Y32798D01*
X114088D01*
X109088Y37798D01*
X104202D01*
Y36200D01*
G02X102800Y34798I-1402J0D01*
G01X90100D01*
G02X88698Y36200I0J1402D01*
G01Y43800D01*
G02X90100Y45202I1402J0D01*
G01X102800D01*
G02X104202Y43800I0J-1402D01*
G01Y42202D01*
X110912D01*
X114850Y38263D01*
G03X115459Y38314I283J283D01*
G02X116600Y38902I1141J-813D01*
G01X121600D01*
G02X123002Y37500I0J-1402D01*
G01Y32500D01*
G37*
G36*
G01X38902Y25000D02*
G02X37500Y23598I-1402J0D01*
G01X32500D01*
G02X31098Y25000I0J1402D01*
G01Y30000D01*
G02X32499Y31401I1401J0D01*
G03X32698Y31601I-1J200D01*
G01Y32247D01*
X32247Y32698D01*
X25847D01*
X20198Y38347D01*
Y44047D01*
X10198Y54047D01*
Y55624D01*
X10061Y55669D01*
G02X9098Y57000I438J1331D01*
G01Y63000D01*
G02X10500Y64402I1402J0D01*
G01X14500D01*
G02X15902Y63000I0J-1402D01*
G01Y57000D01*
G02X15419Y55942I-1402J1D01*
G03X15398Y55357I262J-302D01*
G01X24802Y45953D01*
Y40253D01*
X27753Y37302D01*
X31119D01*
G03X31402Y37984I0J400D01*
G01X30298Y39088D01*
Y41098D01*
X30000D01*
G02X28598Y42500I0J1402D01*
G01Y47500D01*
G02X30000Y48902I1402J0D01*
G01X35000D01*
G02X36402Y47500I0J-1402D01*
G01Y42500D01*
G02X35000Y41098I-1402J0D01*
G01X34998D01*
G03X34856Y40757I0J-200D01*
G01X35912Y39702D01*
X40912D01*
X45602Y35012D01*
Y31402D01*
X45900D01*
G02X47302Y30000I0J-1402D01*
G01Y25000D01*
G02X45900Y23598I-1402J0D01*
G01X40900D01*
G02X39498Y25000I0J1402D01*
G01Y30000D01*
G02X40900Y31402I1402J0D01*
G01X41198D01*
Y33188D01*
X39088Y35298D01*
X37122D01*
G03X36839Y34616I0J-400D01*
G01X37302Y34153D01*
Y31601D01*
G03X37501Y31401I200J0D01*
G02X38902Y30000I0J-1401D01*
G01Y25000D01*
G37*
G54D22*
X20000Y20000D03*
X140000Y140000D03*
%LPD*%
G75*
G54D10*
X12500Y70000D03*
Y60000D03*
Y97500D03*
Y107500D03*
X147500Y47500D03*
Y37500D03*
Y85000D03*
Y95000D03*
G54D20*
G01X8898Y70000D02*
X12500D01*
G01X8898Y97500D02*
X12500D01*
G01X43400Y27500D02*
Y34100D01*
X40000Y37500D01*
X35000D01*
X32500Y40000D01*
Y45000D01*
G01X12500Y65398D02*
Y70000D01*
G01D02*
Y74602D01*
G01Y70000D02*
X16102D01*
G01X12500Y92898D02*
Y97500D01*
G01D02*
Y102102D01*
G01Y97500D02*
X16102D01*
G01X30200Y100000D02*
X21700D01*
X19000Y102700D01*
Y105200D01*
X16700Y107500D01*
X12500D01*
G01X49800Y100000D02*
Y104400D01*
X50000Y104600D01*
Y120000D01*
X40000Y130000D01*
X25000D01*
G01X75000Y40000D02*
X61000D01*
G01X40900Y45000D02*
X50400D01*
X51700Y43700D01*
X54000D01*
G01Y32798D02*
Y36200D01*
G01D02*
Y39602D01*
G01X50798Y36200D02*
X54000D01*
G01D02*
X57202D01*
G01X75000Y40000D02*
Y50000D01*
X72500Y52500D01*
X65000D01*
X60000Y57500D01*
Y65900D01*
X61600Y67500D01*
X67800D01*
X68700Y68400D01*
X72500D01*
G01X49800Y100000D02*
Y95600D01*
X50000Y95400D01*
Y80000D01*
X45000Y75000D01*
Y68400D01*
G01X68398Y60000D02*
X72500D01*
G01X45000Y55898D02*
Y60000D01*
G01X40898D02*
X45000D01*
G01D02*
X49102D01*
G01X49800Y100000D02*
X58800D01*
X67300Y91500D01*
X71300D01*
G01X67500Y137500D02*
Y125900D01*
G01Y117500D02*
X75000Y110000D01*
Y98700D01*
G01X100400Y40000D02*
X110000D01*
X115000Y35000D01*
X119100D01*
G01X92500Y34598D02*
Y40000D01*
G01D02*
Y45402D01*
G01X88498Y40000D02*
X92500D01*
G01X78800Y91300D02*
Y88800D01*
X72500Y82500D01*
Y68400D01*
G01X100000Y77300D02*
Y85800D01*
X94456Y91344D01*
X91128D01*
X78800Y91300D01*
G01X100000Y57700D02*
Y57600D01*
G01Y57700D02*
Y65602D01*
G01X95248Y57700D02*
X100000D01*
G01D02*
X104752D01*
G01X72500Y55898D02*
Y60000D01*
G01D02*
X76602D01*
G01X78800Y91500D02*
Y91300D01*
G01X90000Y107500D02*
Y117500D01*
X88800Y118700D01*
Y126500D01*
G01X75000Y98700D02*
Y98500D01*
G01X90000Y107500D02*
X77528D01*
X75036Y105036D01*
X75000Y98700D01*
G01X110200Y115000D02*
X97500D01*
X96300Y116200D01*
Y126500D01*
G01X130000Y45898D02*
Y50000D01*
G01X125898D02*
X130000D01*
G01D02*
X134102D01*
G01X110200Y115000D02*
Y110600D01*
X110000Y110400D01*
Y95000D01*
X130000Y75000D01*
Y58400D01*
G01X129800Y115000D02*
X142500D01*
X147500Y110000D01*
Y95000D01*
G01Y42898D02*
Y47500D01*
G01D02*
Y52102D01*
G01X143898Y47500D02*
X147500D01*
G01D02*
X151102D01*
G01X147500Y80398D02*
Y85000D01*
G01D02*
Y89602D01*
G01X143898Y85000D02*
X147500D01*
G01D02*
X151102D01*
G54D11*
X20000Y20000D03*
X140000Y140000D03*
G54D21*
G01X12500Y60000D02*
Y55000D01*
X22500Y45000D01*
Y39300D01*
X26800Y35000D01*
X33200D01*
X35000Y33200D01*
Y27500D01*
G01X67500Y145900D02*
X63600D01*
X62000Y147500D01*
X27500D01*
X25000Y145000D01*
Y138400D01*
G01X67500Y145900D02*
X71400D01*
X72300Y145000D01*
X85000D01*
X92500Y137500D01*
Y133500D01*
G01X80000Y135000D02*
X86900D01*
X88400Y133500D01*
X92500D01*
G01X127500Y35000D02*
X141600D01*
X144100Y37500D01*
X147500D01*
G01X127500Y35000D02*
Y40000D01*
X120000Y47500D01*
X115000D01*
G54D12*
X32500Y45000D03*
X40900D03*
X35000Y27500D03*
X43400D03*
X25000Y130000D03*
Y138400D03*
X45000Y60000D03*
Y68400D03*
X72500Y60000D03*
Y68400D03*
X67500Y137500D03*
Y117500D03*
Y125900D03*
Y145900D03*
X130000Y50000D03*
X127500Y35000D03*
X119100D03*
X130000Y58400D03*
G54D13*
X30200Y100000D03*
X49800D03*
X129800Y115000D03*
X110200D03*
G54D14*
X54000Y36200D03*
Y43700D03*
X61000Y40000D03*
G54D15*
X71300Y91500D03*
X78800D03*
X75000Y98500D03*
X96300Y126500D03*
X88800D03*
X92500Y133500D03*
G54D16*
Y40000D03*
X100400D03*
G54D17*
X75000D03*
X90000Y107500D03*
G54D18*
X100000Y77300D03*
Y57700D03*
G54D19*
X80000Y135000D03*
X115000Y47500D03*
M02*
